<svg width="32" height="32" viewBox="0 0 24 24" fill="none" xmlns="http://www.w3.org/2000/svg">
  <path d="M16 11V3H21L19 1L17 3V11C17 11.55 16.55 12 16 12C15.45 12 15 11.55 15 11Z" fill="#2563eb"/>
  <path d="M8 11V3H13L11 1L9 3V11C9 11.55 8.55 12 8 12C7.45 12 7 11.55 7 11Z" fill="#2563eb"/>
  <path d="M12 12C12 12.55 11.55 13 11 13H1C0.45 13 0 12.55 0 12C0 11.45 0.45 11 1 11H11C11.55 11 12 11.45 12 12Z" fill="#2563eb"/>
  <path d="M24 12C24 12.55 23.55 13 23 13H13C12.45 13 12 12.55 12 12C12 11.45 12.45 11 13 11H23C23.55 11 24 11.45 24 12Z" fill="#2563eb"/>
  <circle cx="4" cy="18" r="4" fill="#2563eb" opacity="0.8"/>
  <circle cx="20" cy="18" r="4" fill="#2563eb" opacity="0.8"/>
  <path d="M2 16H6V20H2V16Z" fill="#1d4ed8"/>
  <path d="M18 16H22V20H18V16Z" fill="#1d4ed8"/>
</svg>